<svg xmlns="http://www.w3.org/2000/svg" viewBox="0 0 1200 760"><defs><radialGradient id="g"><stop stop-color="#f5820b" stop-opacity=".35"/><stop offset="1" stop-color="#f5820b" stop-opacity="0"/></radialGradient></defs><rect width="1200" height="760" fill="#081016"/><circle cx="620" cy="330" r="360" fill="url(#g)"/><g fill="#121d27" stroke="#344552" stroke-width="5"><path d="M310 470c-70 0-125-55-125-123s55-123 125-123c14-101 100-177 204-177 95 0 174 63 198 149 26-18 57-29 91-29 88 0 160 72 160 160s-72 160-160 160H310z"/></g><g stroke="#f5820b" stroke-width="7" fill="none" stroke-linecap="round"><path d="M380 420l110-80 100 55 130-100"/><path d="M480 300v120M590 350v70M720 250v170"/></g><g fill="#fff"><circle cx="490" cy="340" r="8"/><circle cx="590" cy="395" r="8"/><circle cx="720" cy="295" r="8"/></g></svg>
